<?xml version="1.0" encoding="UTF-8"?>
<svg width="120mm" height="120mm" version="1.1" viewBox="0 0 120 120" xmlns="http://www.w3.org/2000/svg">
 <g transform="translate(.98107 .8396)" stroke="#000">
  <g transform="matrix(.98536 0 0 .85694 -.086522 -.061627)">
   <rect x="20.232" y=".23249" width="99.535" height="137.78" fill="#f7eddf" fill-opacity=".50196" stroke-width="2.216"/>
   <rect x=".20347" y=".20347" width="19.593" height="137.78" fill="#d83e40" stroke-width="2.2226"/>
  </g>
  <g transform="matrix(.99876 0 0 1.0013 .0001705 -10.922)" fill="#fff" stroke-width="2.3812">
   <path d="m15 51.191h10"/>
   <path d="m15 71.191h10"/>
   <path d="m15 91.191h10"/>
   <path d="m15 31.191h10"/>
   <path d="m15 111.19h10"/>
  </g>
  <g transform="matrix(.99876 0 0 1.0013 339.58 49.95)" fill="#fff" stroke-width="2.3812">
   <path d="m-300 30.397h30"/>
   <path d="m-260 30.397h20"/>
   <path d="m-300 40.397h20"/>
   <path d="m-270 40.397h30"/>
   <path d="m-300 50.397h40"/>
   <path d="m-250 50.397h10"/>
  </g>
  <g transform="matrix(.99876 0 0 1.0013 .0001705 -8.9195)" stroke-width="2.3812">
   <g fill="#a85805">
    <ellipse cx="70" cy="62.978" rx="29.604" ry="8.7528"/>
    <ellipse cx="70" cy="52.978" rx="29.604" ry="8.7528"/>
    <ellipse cx="70" cy="42.978" rx="29.604" ry="8.7528"/>
   </g>
   <path d="m69.847 29.191a24.638 8.7688 0 0 0-24.485 8.7689 24.638 8.7688 0 0 0 7.366 6.2529 7.3556 18.096 0 0 0-0.25592 4.7303 7.3556 18.096 0 0 0 7.3557 18.095 7.3556 18.096 0 0 0 7.3557-18.095 7.3556 18.096 0 0 0-0.0585-2.2743 24.638 8.7688 0 0 0 2.8747 0.06005 24.638 8.7688 0 0 0 24.638-8.7689 24.638 8.7688 0 0 0-24.638-8.7689 24.638 8.7688 0 0 0-0.15311 0z" fill="#ceac83"/>
  </g>
 </g>
</svg>
